<mxfile host="app.diagrams.net" agent="Mozilla/5.0 (Windows NT 10.0; Win64; x64) AppleWebKit/537.36 (KHTML, like Gecko) Chrome/135.0.0.0 Safari/537.36" version="28.2.3">
  <diagram name="Page-1" id="IUPtRBbK3axBLhvmhcN7">
    <mxGraphModel dx="1042" dy="562" grid="1" gridSize="10" guides="1" tooltips="1" connect="1" arrows="1" fold="1" page="1" pageScale="1" pageWidth="850" pageHeight="1100" math="0" shadow="0">
      <root>
        <mxCell id="0" />
        <mxCell id="1" parent="0" />
        <mxCell id="xvgzVRmWBfv8fwrMEcza-12" value="" style="edgeStyle=orthogonalEdgeStyle;rounded=0;orthogonalLoop=1;jettySize=auto;html=1;" edge="1" parent="1" source="xvgzVRmWBfv8fwrMEcza-5" target="xvgzVRmWBfv8fwrMEcza-11">
          <mxGeometry relative="1" as="geometry" />
        </mxCell>
        <mxCell id="xvgzVRmWBfv8fwrMEcza-5" value="PLAN" style="ellipse;whiteSpace=wrap;html=1;" vertex="1" parent="1">
          <mxGeometry x="350" y="230" width="90" height="70" as="geometry" />
        </mxCell>
        <mxCell id="xvgzVRmWBfv8fwrMEcza-14" value="" style="edgeStyle=orthogonalEdgeStyle;rounded=0;orthogonalLoop=1;jettySize=auto;html=1;" edge="1" parent="1" source="xvgzVRmWBfv8fwrMEcza-11" target="xvgzVRmWBfv8fwrMEcza-13">
          <mxGeometry relative="1" as="geometry" />
        </mxCell>
        <mxCell id="xvgzVRmWBfv8fwrMEcza-11" value="DEVELOP" style="ellipse;whiteSpace=wrap;html=1;" vertex="1" parent="1">
          <mxGeometry x="350" y="380" width="90" height="70" as="geometry" />
        </mxCell>
        <mxCell id="xvgzVRmWBfv8fwrMEcza-16" value="" style="edgeStyle=orthogonalEdgeStyle;rounded=0;orthogonalLoop=1;jettySize=auto;html=1;" edge="1" parent="1" source="xvgzVRmWBfv8fwrMEcza-13" target="xvgzVRmWBfv8fwrMEcza-15">
          <mxGeometry relative="1" as="geometry" />
        </mxCell>
        <mxCell id="xvgzVRmWBfv8fwrMEcza-13" value="BUILT" style="ellipse;whiteSpace=wrap;html=1;" vertex="1" parent="1">
          <mxGeometry x="350" y="530" width="90" height="70" as="geometry" />
        </mxCell>
        <mxCell id="xvgzVRmWBfv8fwrMEcza-18" value="" style="edgeStyle=orthogonalEdgeStyle;rounded=0;orthogonalLoop=1;jettySize=auto;html=1;" edge="1" parent="1" source="xvgzVRmWBfv8fwrMEcza-15" target="xvgzVRmWBfv8fwrMEcza-17">
          <mxGeometry relative="1" as="geometry" />
        </mxCell>
        <mxCell id="xvgzVRmWBfv8fwrMEcza-15" value="TEST" style="ellipse;whiteSpace=wrap;html=1;" vertex="1" parent="1">
          <mxGeometry x="350" y="680" width="90" height="70" as="geometry" />
        </mxCell>
        <mxCell id="xvgzVRmWBfv8fwrMEcza-20" value="" style="edgeStyle=orthogonalEdgeStyle;rounded=0;orthogonalLoop=1;jettySize=auto;html=1;" edge="1" parent="1" source="xvgzVRmWBfv8fwrMEcza-17" target="xvgzVRmWBfv8fwrMEcza-19">
          <mxGeometry relative="1" as="geometry" />
        </mxCell>
        <mxCell id="xvgzVRmWBfv8fwrMEcza-17" value="RELEASE" style="ellipse;whiteSpace=wrap;html=1;" vertex="1" parent="1">
          <mxGeometry x="350" y="830" width="90" height="70" as="geometry" />
        </mxCell>
        <mxCell id="xvgzVRmWBfv8fwrMEcza-22" value="" style="edgeStyle=orthogonalEdgeStyle;rounded=0;orthogonalLoop=1;jettySize=auto;html=1;" edge="1" parent="1" source="xvgzVRmWBfv8fwrMEcza-19" target="xvgzVRmWBfv8fwrMEcza-21">
          <mxGeometry relative="1" as="geometry" />
        </mxCell>
        <mxCell id="xvgzVRmWBfv8fwrMEcza-19" value="DEPLOY" style="ellipse;whiteSpace=wrap;html=1;" vertex="1" parent="1">
          <mxGeometry x="350" y="980" width="90" height="70" as="geometry" />
        </mxCell>
        <mxCell id="xvgzVRmWBfv8fwrMEcza-24" value="" style="edgeStyle=orthogonalEdgeStyle;rounded=0;orthogonalLoop=1;jettySize=auto;html=1;" edge="1" parent="1" source="xvgzVRmWBfv8fwrMEcza-21" target="xvgzVRmWBfv8fwrMEcza-23">
          <mxGeometry relative="1" as="geometry" />
        </mxCell>
        <mxCell id="xvgzVRmWBfv8fwrMEcza-21" value="OPERATE" style="ellipse;whiteSpace=wrap;html=1;" vertex="1" parent="1">
          <mxGeometry x="350" y="1130" width="90" height="70" as="geometry" />
        </mxCell>
        <mxCell id="xvgzVRmWBfv8fwrMEcza-23" value="MONITOR" style="ellipse;whiteSpace=wrap;html=1;" vertex="1" parent="1">
          <mxGeometry x="350" y="1280" width="90" height="70" as="geometry" />
        </mxCell>
      </root>
    </mxGraphModel>
  </diagram>
</mxfile>
